<?xml version="1.0" encoding="UTF-8"?>
<svg xmlns="http://www.w3.org/2000/svg" xmlns:xlink="http://www.w3.org/1999/xlink" height="477.4" preserveAspectRatio="xMidYMid meet" version="1.0" viewBox="-0.0 -0.0 403.2 477.4" width="403.2" zoomAndPan="magnify"><g fill="#4c7dfe" id="change1_1"><path d="M208.5,194.2l0.1-0.4c7.3-20,10.4-36.8,9.7-52.9c-0.3-5.5-1.2-11-2.1-16.4c-1.1-6.8-2.3-13.9-2.1-21 c0.5-19.2,10.8-36.1,20.7-52.4c8.6-14.1,17.4-28.6,20.2-44.7c0.6-3.3,3.2-5.9,6.3-6.3c0.3,0,0.6-0.1,0.8-0.1c3.4,0,5,3,6.1,4.9 c9.5,17.6,19.3,35.7,22.9,55.8c4,22.5-1.5,43.8-14.6,57c-8.2,8.2-18.2,12.3-27.9,16.3c-10.7,4.4-20.7,8.6-28.6,17.6 c-0.7,12.9-3.9,26.9-9.7,42.7l-0.1,0.4L208.5,194.2z M262.1,1.8c-0.2,0-0.4,0-0.6,0c-2.4,0.3-4.3,2.3-4.8,4.8 C253.9,23.2,245,37.8,236.3,52c-9.8,16.1-20,32.8-20.5,51.5c-0.2,6.9,1,13.9,2.1,20.7c0.9,5.4,1.8,11,2.1,16.6 c0.1,2.4,0.1,4.8,0.1,7.2c2.3-3.8,4.6-8,6.9-12.2c2.8-5.1,5.8-10.4,8.5-14.8c7.5-11.9,16-25.3,18.8-40c1.8-9,1.4-18.6,1.1-27.8 c-0.4-11.3-0.7-23.1,2.7-33.8c0.4-1.3,1.6-2.1,2.9-2.1c0.1,0,0.2,0,0.2,0c1.4,0.1,2.5,1.1,2.7,2.4c1.4,7.6-0.4,15.6-2,23.4 c-0.8,3.7-1.6,7.5-2.1,11.2c-0.5,4.3-0.6,8.7-0.7,13c-0.1,6-0.2,12.3-1.6,18.3c-2.4,10.3-8.4,19.5-13.7,27.7 c-4.5,6.9-8.3,13.1-12,19.2c-2.5,4.1-5.1,8.3-7.9,12.7c7.2-5.9,15.6-9.4,23.8-12.8c9.5-3.9,19.4-8,27.3-15.9 c12.7-12.8,18-33.5,14.1-55.4c-3.5-19.9-13.3-37.9-22.7-55.3C265.5,3.6,264.3,1.8,262.1,1.8z M257.6,67.4c-0.1,4.7-0.5,9.4-1.4,14 c-1.6,8.1-4.8,15.8-8.6,23c3.6-6,6.8-12.3,8.4-19.2C257.3,79.4,257.5,73.3,257.6,67.4z M261.2,19.2c-0.2,0-0.9,0.1-1.2,0.9 c-3.4,10.4-3,22-2.6,33.1c0.1,4.2,0.3,8.6,0.2,12.9c0.1-3.9,0.2-7.9,0.7-11.9c0.5-3.7,1.3-7.6,2.1-11.3c1.6-7.7,3.3-15.5,2-22.7 C262.2,19.3,261.5,19.2,261.2,19.2L261.2,19.2z" fill="inherit"/><path d="M209.9,194.3l-0.9-0.3c7.3-20.1,10.4-36.9,9.7-53c-0.3-5.5-1.2-11-2.1-16.4c-1.1-6.8-2.3-13.9-2.1-20.9 c0.5-19.1,10.8-36,20.7-52.2c8.6-14.1,17.5-28.7,20.2-44.9c0.5-3.1,3-5.6,5.9-6c3.7-0.5,5.4,2.6,6.5,4.7 c9.5,17.5,19.3,35.6,22.8,55.7c4,22.4-1.4,43.6-14.5,56.7c-8.1,8.1-18.1,12.3-27.8,16.3c-10.7,4.4-20.9,8.6-28.8,17.8 C218.9,164.6,215.7,178.5,209.9,194.3z M262.1,1.4c-0.2,0-0.4,0-0.7,0c-2.5,0.3-4.6,2.5-5.1,5.2C253.6,23,244.6,37.7,236,51.8 c-9.8,16.2-20,32.9-20.5,51.7c-0.2,6.9,1,14,2.1,20.7c0.9,5.4,1.8,11,2.1,16.5c0.1,2.9,0.1,5.7,0,8.6c2.5-4.1,5.2-8.9,7.7-13.5 c2.8-5.1,5.7-10.3,8.5-14.7c7.5-11.9,16-25.4,18.9-40.1c1.8-9,1.5-18.6,1.2-27.9c-0.4-11.3-0.7-23,2.7-33.6 c0.4-1.2,1.5-1.9,2.7-1.8c1.2,0.1,2.1,0.9,2.4,2.1c1.3,7.5-0.4,15.5-2,23.2c-0.8,3.7-1.6,7.5-2.1,11.2c-0.5,4.3-0.6,8.7-0.7,13 c-0.1,6-0.2,12.2-1.6,18.2c-2.3,10.2-8.4,19.4-13.7,27.6c-4.5,7-8.4,13.2-12.1,19.2c-2.9,4.8-5.9,9.7-9.3,15 c7.6-7,16.8-10.8,25.7-14.5c9.6-4,19.5-8.1,27.4-16c12.8-12.9,18.1-33.7,14.2-55.8c-3.5-19.9-13.3-38-22.7-55.4 C265.7,3.3,264.5,1.4,262.1,1.4z M261.2,18.8c-0.6,0-1.3,0.3-1.6,1.1c-3.4,10.4-3,22.1-2.6,33.3c0.3,9.3,0.6,19-1.2,28.1 c-2.9,14.9-11.5,28.5-19,40.5c-1.4,2.2-2.9,4.7-4.3,7.3c3.2-5.2,6.5-10.6,10.4-16.5c5.5-8.5,11.2-17.2,13.5-27.3 c1.3-5.9,1.5-12,1.6-17.9c0.1-4.3,0.2-8.8,0.7-13.1c0.5-3.7,1.3-7.6,2.1-11.3c1.6-7.6,3.3-15.6,2-22.8c-0.2-0.9-0.9-1.2-1.4-1.3 C261.3,18.8,261.2,18.8,261.2,18.8z" fill="inherit"/></g><g fill="#4c7dfe" id="change1_2"><path d="M197,215.4l0.2-0.4c8.3-15.9,2.4-38.5-2.3-56.7c-0.5-2-1-3.9-1.5-5.8c-1.4-5.7-2.9-11.6-5.2-17.2 c-2.6-6.2-6.3-12.1-9.8-17.8c-2.7-4.2-5.4-8.6-7.7-13.1c-11.4-22.4-12.2-48.8-12.9-72c-0.2-7.2-0.3-14.8,1.7-21.5 c0.7-2.5,2.8-4.3,5.4-4.7c0.4-0.1,0.7-0.1,1.1-0.1c2.3,0,4.3,1.1,5.6,3c14.9,22.4,25,41.8,26,63.6c0.4,8.3-0.7,16.5-1.7,24.6 c-0.9,6.9-1,15-1.2,22.9c-0.1,2.8-0.1,5.6-0.2,8.3c1.7-6.3,4.1-12.4,7.1-18.3c0.6-1.2,1.8-1.9,3.2-1.9c0.2,0,0.4,0,0.7,0.1 c1.6,0.3,2.8,1.5,3,3.1c1.6,13.6-4,27.6-14.5,35.9c0.4,1.6,0.8,3.2,1.2,4.7c0.5,1.9,1,3.8,1.5,5.7c4.8,18.6,10.7,41.6,2.1,58.1 l-0.2,0.4L197,215.4z M193.5,145.5c9.6-7.9,14.7-21.1,13.2-33.8c-0.1-1-0.9-1.5-1.5-1.6c-0.1,0-0.2,0-0.3,0c-0.4,0-1.1,0.1-1.6,1 c-4.9,9.5-8.1,19.7-9.5,30.2c0,0.1,0,0.1,0,0.2c-0.1,0.5-0.1,1.1-0.2,1.7l-0.2,1.6C193.4,145.1,193.5,145.3,193.5,145.5z M170,30.8 c1.3,0,2.8,0.7,3.4,2.5l0.7,2.1c8.8,26.6,17.9,54.2,17.5,82.4c-0.1,6.9,0.2,13.5,0.7,18.5c0.4-5.2,0.5-10.7,0.6-16.2 c0.2-7.9,0.3-16.1,1.2-23.1c1-7.9,2.1-16.1,1.7-24.2c-1-21.4-11-40.5-25.7-62.7c-0.9-1.4-2.5-2.2-4.1-2.2c-0.3,0-0.5,0-0.8,0.1 c-1.9,0.3-3.4,1.6-3.9,3.4c-1.9,6.5-1.8,13.9-1.6,21c0.7,23.1,1.5,49.2,12.7,71.3c2.3,4.4,5,8.8,7.6,12.9c3.6,5.7,7.3,11.7,10,18 c0.1,0.3,0.3,0.6,0.4,0.9c-3.6-24.8-7.8-48.8-16.4-71.1l-0.9-2.3c-3.5-8.8-7.4-18.9-6.6-28.1c0.2-2,1.7-3.1,3.2-3.3 C169.7,30.8,169.9,30.8,170,30.8z M170,32.6c-0.1,0-0.2,0-0.2,0c-0.2,0-1.5,0.2-1.6,1.6c-0.8,8.8,2.9,18.2,6.5,27.3l0.9,2.3 c7.3,18.8,11.3,38.2,14.3,56.7c0-0.9,0-1.9,0-2.8c0.4-28-8.7-55.4-17.4-81.8l-0.7-2.1C171.4,32.7,170.4,32.6,170,32.6z" fill="inherit"/><path d="M198.5,215.7l-0.9-0.5c8.4-16,2.5-38.8-2.2-57c-0.5-2-1-3.9-1.5-5.8c-1.4-5.7-2.9-11.7-5.2-17.2 c-2.6-6.3-6.3-12.2-9.9-17.8c-2.6-4.2-5.4-8.5-7.7-13C159.8,82,159,55.7,158.3,32.5c-0.2-7.2-0.3-14.7,1.7-21.4 c0.7-2.3,2.6-4,5.1-4.4c2.5-0.4,4.9,0.7,6.3,2.7c14.9,22.3,25,41.7,26,63.4c0.4,8.2-0.7,16.5-1.7,24.5c-0.9,6.9-1.1,15-1.2,22.9 c-0.1,4-0.2,8.1-0.4,12.1c1.8-7.6,4.5-14.9,8.1-21.9c0.7-1.3,2-1.9,3.4-1.7c1.4,0.3,2.5,1.4,2.6,2.8c1.6,13.6-4.1,27.5-14.5,35.7 c0.4,1.7,0.9,3.3,1.3,5c0.5,1.9,1,3.8,1.5,5.8C201.1,176.4,207,199.4,198.5,215.7z M192.9,144.9c0.1,0.4,0.2,0.9,0.4,1.3 c10-8,15.4-21.4,13.8-34.5c-0.1-1.2-1.1-1.8-1.8-1.9c-0.8-0.1-1.8,0.1-2.3,1.2c-4.9,9.5-8.1,19.8-9.6,30.4c0,0.1,0,0.1,0,0.1 c-0.1,0.6-0.1,1.2-0.2,1.8L192.9,144.9z M170,31.2c1.2,0,2.5,0.7,3.1,2.2l0.7,2.1c8.8,26.6,17.9,54.1,17.5,82.3 c-0.1,7.1,0.2,16.1,1.2,22.2c0.6-6.2,0.7-13.1,0.9-19.8c0.2-7.9,0.3-16.1,1.2-23c1-8,2.1-16.2,1.7-24.3c-1-21.5-11-40.7-25.8-62.9 c-1.2-1.8-3.2-2.6-5.3-2.3c-2.1,0.3-3.7,1.7-4.2,3.7c-1.9,6.6-1.8,14-1.6,21.1c0.7,23.1,1.5,49.3,12.7,71.4c2.3,4.5,5,8.8,7.6,13 c3.6,5.7,7.3,11.6,9.9,18c0.6,1.5,1.2,3,1.7,4.6c-3.9-27.3-8-51.9-17-75l-0.9-2.3c-3.4-8.8-7.4-18.8-6.6-27.9 c0.2-1.8,1.5-2.8,2.8-2.9C169.8,31.2,169.9,31.2,170,31.2z M170,32.2c-0.1,0-0.2,0-0.3,0c-0.8,0.1-1.8,0.7-1.9,2 c-0.8,8.9,2.9,18.3,6.5,27.5l0.9,2.3c7.6,19.5,11.7,40,15.1,62.2c-0.1-2.9-0.1-5.8-0.1-8.4c0.4-28-8.7-55.5-17.4-82l-0.7-2.1 C171.8,32.6,170.8,32.2,170,32.2z" fill="inherit"/></g><g fill="#91aeda" id="change2_1"><path d="M186.9,331.2c-2.3-12,0.1-24.2,2.4-36c2-10,4-20.4,3.2-30.6c-0.3-3.8-1.1-7.6-1.8-11.3 c-1.5-7.8-3.1-15.9-1-23.7c1.6-6.1,5.3-11.3,8.9-16.4c2.3-3.3,4.8-6.8,6.6-10.4c1.4-2.9,2.5-6.1,3.6-9.1c1.2-3.5,2.5-7.2,4.3-10.6 c4.3-8,11.7-14.1,18.1-19.5c10.1-8.4,20.5-17,33.2-21.5c5.2-1.8,10.7-2.8,16.1-2.8c2,0,4.1,0.1,6,0.4c9.2-0.4,18.7-1.4,27.9-2.3 c9.3-0.9,18.9-1.9,28.3-2.3c3.2-0.1,6.4-0.3,9.7-0.3c5.9,0,10.7,0.5,15,1.6c9.2,2.3,16.4,7.6,19.8,14.5c3.9,7.9,2.6,17.3,1.7,24.9 l-4,30.6c-0.2,1.2-1,2.1-2.2,2.3c-0.2,0-0.3,0-0.5,0c-1,0-1.9-0.5-2.3-1.4c-5.2-9.6-12.8-21.2-24.7-25.7c-4.2-1.6-8.9-2.3-13.4-2.9 c-6.2-0.9-12.6-1.8-18-5.1c-5.5-3.4-9.2-8.8-12.8-14c-2.8-4.1-5.7-8.3-9.5-11.5c-1.1-0.9-2.2-1.7-3.4-2.4c-1.4-0.1-2.8-0.2-4.2-0.3 l-0.3,0c-3.5-0.3-6.3-0.5-8-4c-1.7-0.2-3.4-0.3-5.2-0.3c-5.1,0-10.5,0.9-15.5,2.7c-12.4,4.4-22.7,13-32.6,21.2 c-6.3,5.3-13.5,11.2-17.7,18.9c-1.8,3.2-3,6.8-4.2,10.3c-1.1,3.1-2.2,6.3-3.7,9.3c-1.9,3.8-4.3,7.3-6.7,10.6 c-3.5,4.9-7.1,10-8.6,15.8c-2,7.4-0.5,15.3,1,22.9c0.7,3.8,1.5,7.7,1.8,11.5c0.9,10.4-1.2,20.9-3.2,31.1 c-2.3,11.6-4.7,23.7-2.4,35.3l0.1,0.4l-1.8,0.3L186.9,331.2z M301.5,145.9c0.4,0.3,0.7,0.6,1,0.8c3.9,3.3,6.9,7.7,9.8,11.9 c3.5,5.1,7.1,10.3,12.3,13.5c5.1,3.1,11,4,17.3,4.9c4.6,0.6,9.4,1.3,13.8,3c12.5,4.7,20.2,16.6,25.6,26.5c0.2,0.4,0.5,0.5,0.8,0.5 c0.1,0,0.1,0,0.2,0c0.1,0,0.6-0.2,0.7-0.8l4-30.6c1-7.3,2.2-16.5-1.5-23.9c-3.2-6.5-9.9-11.4-18.6-13.6c-4.2-1-8.8-1.5-14.6-1.5 c-3.2,0-6.4,0.1-9.5,0.3c-9.4,0.4-18.9,1.4-28.2,2.3c-7.3,0.7-14.7,1.5-22.1,2c0.8,0.3,1.7,0.6,2.5,0.9c2.8,0.7,5.6,1.5,8.4,2.2 l1.1,0.1c8.2,0.5,16.7,1,24.9,2.7c8.3,1.7,20,5.5,28.6,14c4,2,7.4,4.2,10.4,6.7c2.5,2,4.3,4.1,5.5,6.2c0.8,1.5,0.2,2.9-0.7,3.6 c-0.5,0.4-1.2,0.7-1.9,0.7c-0.7,0-1.4-0.3-1.9-0.7c-2.6-2.2-4.7-5.2-6.7-8c-1.1-1.5-2.2-3.1-3.4-4.6c-0.7-0.9-1.5-1.7-2.3-2.5 c-7.9-4-16.7-6.5-24.5-8.8c-7.9-2.3-15.7-4.2-23.3-6.1c-2-0.5-4.1-1-6.1-1.5L301.5,145.9z M361.6,165c0.9,1.1,1.7,2.3,2.5,3.4 c2,2.8,4,5.6,6.4,7.7c0.2,0.2,0.5,0.3,0.7,0.3l0,0c0.3,0,0.5-0.1,0.7-0.3c0.1-0.1,0.7-0.6,0.3-1.4c-1.1-1.9-2.8-3.8-5-5.7 C365.6,167.7,363.7,166.3,361.6,165z M313.1,146.7c6.5,1.6,13.1,3.3,19.8,5.3c6,1.7,12.7,3.6,19,6.2c-7.6-5.4-16.4-8.1-22.9-9.4 C323.8,147.7,318.4,147.1,313.1,146.7z M288.3,142.1c1.2,1.1,2.8,1.2,5.2,1.4C291.8,143.1,290,142.6,288.3,142.1z" fill="inherit"/><path d="M187.3,331.1c-2.3-11.9,0.1-24.1,2.4-35.9c2-10.1,4.1-20.5,3.2-30.7c-0.3-3.8-1.1-7.6-1.8-11.4 c-1.5-7.8-3-15.8-1-23.5c1.6-6,5.3-11.2,8.8-16.3c2.4-3.3,4.8-6.8,6.6-10.5c1.4-2.9,2.5-6.1,3.6-9.2c1.2-3.5,2.5-7.2,4.3-10.5 c4.3-7.9,11.6-14,18-19.3c10-8.3,20.4-16.9,33.1-21.5c6.3-2.3,14.2-3.5,21.9-2.4c9.3-0.4,18.8-1.4,28.1-2.3 c9.3-0.9,18.9-1.9,28.3-2.3c8.1-0.4,16.5-0.7,24.6,1.3c9.1,2.3,16.2,7.5,19.5,14.3c3.8,7.8,2.6,17.2,1.6,24.7l-4,30.6 c-0.1,1-0.9,1.8-1.8,1.9c-1,0.2-1.9-0.3-2.4-1.2c-5.3-9.6-12.9-21.3-24.9-25.9c-4.3-1.6-8.9-2.3-13.4-2.9 c-6.1-0.9-12.5-1.8-17.9-5.1c-5.4-3.3-9.1-8.7-12.7-13.9c-2.8-4.1-5.8-8.4-9.6-11.6c-1.1-0.9-2.3-1.8-3.5-2.5 c-1.4-0.1-2.9-0.2-4.3-0.3l-0.3,0c-3.6-0.3-6.1-0.5-7.8-3.9c-7.4-1-14.9,0.2-21,2.4c-12.4,4.4-22.8,13-32.7,21.3 c-6.4,5.3-13.6,11.3-17.8,19c-1.8,3.3-3,6.9-4.2,10.4c-1.1,3.1-2.2,6.3-3.6,9.3c-1.8,3.7-4.3,7.2-6.7,10.6c-3.5,5-7.1,10.1-8.7,16 c-2,7.5-0.5,15.4,1,23.1c0.7,3.8,1.5,7.6,1.8,11.5c0.9,10.4-1.2,20.8-3.2,31c-2.3,11.7-4.7,23.8-2.4,35.5L187.3,331.1z M300.2,145.4c0.7,0.5,1.4,1,2.1,1.6c3.9,3.3,6.9,7.6,9.7,11.8c3.5,5.1,7.1,10.4,12.4,13.6c5.2,3.2,11.2,4,17.5,4.9 c4.6,0.6,9.3,1.3,13.7,3c12.3,4.7,20.1,16.5,25.4,26.3c0.3,0.6,0.9,0.7,1.4,0.7c0.4-0.1,0.9-0.4,1-1.1l4-30.6 c1-7.4,2.2-16.6-1.5-24.1c-3.2-6.6-10.1-11.6-18.9-13.8c-7.9-2-16.3-1.6-24.3-1.3c-9.4,0.4-19,1.4-28.2,2.3 c-8,0.8-16.1,1.6-24.2,2.1c1.6,0.4,3.1,0.9,4.6,1.6c2.9,0.8,5.7,1.5,8.5,2.2c0.4,0,0.8,0,1.2,0.1c8.2,0.5,16.7,1,24.9,2.7 c8.5,1.7,20,5.5,28.4,13.9c3.7,1.9,7.2,4.1,10.4,6.7c2.4,2,4.2,4.1,5.4,6.1c0.7,1.3,0.2,2.5-0.6,3.1c-0.8,0.7-2.2,0.9-3.3,0 c-2.6-2.2-4.6-5.1-6.6-7.9c-1.1-1.5-2.2-3.1-3.4-4.6c-0.7-0.9-1.5-1.8-2.3-2.6c-7.9-4-16.7-6.5-24.7-8.8 c-7.9-2.3-15.7-4.2-23.3-6.1c-2-0.5-4.1-1-6.1-1.5C302.2,145.6,301.2,145.5,300.2,145.4z M359.9,163.6c0.1,0.2,0.3,0.3,0.4,0.5 c1.2,1.5,2.4,3.1,3.5,4.7c2,2.8,4,5.6,6.5,7.8c0.7,0.6,1.5,0.4,2,0c0.4-0.4,0.8-1.1,0.4-1.9c-1.1-1.9-2.8-3.9-5.1-5.8 C365.1,166.8,362.6,165.1,359.9,163.6z M308.6,146c0.3,0.1,0.6,0.2,0.9,0.2c7.6,1.9,15.4,3.9,23.3,6.1c7.1,2,14.7,4.2,21.9,7.5 c-7.9-6.6-17.9-9.9-25.5-11.4C322.4,147,315.4,146.4,308.6,146z M287.1,141.4c1.4,2.1,3.4,2.3,6.5,2.6l0.3,0 c0.7,0.1,1.4,0.1,2.1,0.2c-0.5-0.3-1.1-0.5-1.6-0.8C292,142.7,289.6,142.1,287.1,141.4z" fill="inherit"/></g><g fill="#f7c42f" id="change3_1"><path d="M208.8,381.2c-9.3-5.3-11.8-16.8-14.2-27.9c-0.7-3.2-1.3-6.1-2.1-8.9c-2.1-7.5-6.2-14.4-10.1-21l-16.2-27.7 c-2.5-4.2-5-8.5-7.9-12.6l-0.2-0.1l-0.5-0.5c-1-1-1.8-2.1-2.4-3.4c-0.8-1-1.8-2.1-2.6-3c-4.1-4.3-8.9-8-13.5-11.5 c-2.9-2.2-6-4.6-8.8-7c-16.4-14.3-27.8-35.2-32.1-58.8c-3.8-20.9-2.2-43.6,4.7-67.4c0.8-2.9,1.7-5.7,2.6-8.5 c3.1-9.8,6.3-19.8,6.5-30.1c0-0.6,0-1.3,0-1.9c0-3.8,0-7.7,2.2-11.1c1.6-2.5,4.1-4,6.7-4.1c4.5,0,6.8,4,8.7,7.2 c5.7,9.6,13.2,18.1,20.4,26.4c8.4,9.6,17.1,19.6,23.1,31.2c9,17.5,11.2,38.4,6.1,57.3c-1.8,6.9-4.6,13.6-7.4,20.1 c-2.2,5.3-4.5,10.8-6.3,16.4c-2.4,7.6-2.6,15.7-2.8,23.5c-0.1,5.1-0.3,10.3-1,15.5c0,0.3-0.1,0.6-0.1,1c-0.1,1.5-0.2,3.3-2.2,7.4 c3,4.2,5.7,8.8,8.3,13.2l16.2,27.7c4,6.7,8.1,13.7,10.2,21.4c0.8,2.9,1.5,5.9,2.2,9c2.3,10.7,4.8,21.8,13.4,26.7l0.3,0.2l-0.9,1.6 L208.8,381.2z M121.1,106c1.2,0,2.3,0.6,2.9,1.7c7.2,13,11.4,28.9,12.8,48.7c0.7,10.5,0.6,21.1,0.5,31.4 c-0.1,7.1-0.1,14.4,0.1,21.7c1.4,6.4,3.4,12.8,5.3,19l15.8,51c1.2-2.7,1.3-4.1,1.4-5.3c0-0.4,0.1-0.7,0.1-1.1 c0.7-5,0.8-10.2,1-15.3c0.2-8,0.4-16.2,2.9-24c1.8-5.7,4.1-11.2,6.3-16.6c2.7-6.4,5.5-13.1,7.3-19.9c4.9-18.5,2.8-39-6-56 c-5.8-11.4-14.5-21.3-22.8-30.8c-7.3-8.4-14.9-17-20.6-26.7c-1.7-2.9-3.7-6.3-7.2-6.3c-2,0-3.9,1.2-5.2,3.2 c-1.9,3-1.9,6.7-1.9,10.2c0,0.7,0,1.3,0,1.9c-0.2,10.5-3.4,20.7-6.6,30.6c-0.9,2.8-1.8,5.7-2.6,8.5c-6.8,23.5-8.4,45.9-4.7,66.5 c4.2,23.3,15.4,43.8,31.5,57.8c2.8,2.4,5.8,4.7,8.7,7c4.6,3.5,9.4,7.1,13.4,11.4c-0.4-1.6-0.6-3.3-0.9-5c-0.2-1.7-0.5-3.4-0.9-5.1 c-0.8-3.4-2.3-6.6-4.4-9.3c-9-11.6-10.9-26.4-11.6-39.3c-0.1-2-0.2-4.1-0.2-6.2c-0.7-3.4-1.2-6.5-1.6-9.6c-0.5-5.3-0.5-10.8-0.5-16 c0-5.6,0-11.4-0.6-17.1c-1.2-9.6-4.4-19.2-7.6-28.4c-3.2-9.4-6.5-19-7.6-28.9c-0.2-1.9,1-3.2,2.3-3.6 C120.4,106,120.8,106,121.1,106z M137.8,218.5c0.8,11.9,2.9,24.9,10.8,35.3l-7.7-24.8C139.9,225.6,138.8,222.1,137.8,218.5z M121.1,107.8c-0.2,0-0.3,0-0.5,0.1c-0.2,0.1-1.2,0.5-1.1,1.7c1.1,9.6,4.4,19.2,7.5,28.5c3.2,9.3,6.5,18.9,7.6,28.7 c0.7,5.7,0.7,11.6,0.6,17.3c0,3.5,0,7,0.1,10.5c0-2.3,0-4.5,0-6.7c0.1-10.3,0.2-20.9-0.5-31.3c-1.3-19.5-5.4-35.2-12.5-47.9 C122.1,107.9,121.5,107.8,121.1,107.8z" fill="inherit"/><path d="M209,380.9c-9.2-5.2-11.6-16.6-14.1-27.6c-0.7-3.1-1.3-6.1-2.1-8.9c-2.1-7.6-6.2-14.5-10.1-21.1l-16.2-27.7 c-2.5-4.3-5.1-8.7-8-12.8l0,0.1l-0.5-0.5c-1-1-1.7-2.1-2.3-3.3c-0.9-1.1-1.8-2.1-2.7-3.1c-4.1-4.3-8.9-8-13.6-11.6 c-2.9-2.2-6-4.6-8.8-7c-16.4-14.2-27.7-35-32-58.6c-3.8-20.9-2.2-43.5,4.7-67.2c0.8-2.8,1.7-5.7,2.6-8.5c3.1-9.8,6.3-19.9,6.5-30.2 c0-0.6,0-1.3,0-1.9c0-3.7,0-7.6,2.1-10.9c1.5-2.4,3.9-3.9,6.3-3.9c0,0,0,0,0,0c4.2,0,6.5,3.9,8.4,7c5.7,9.6,13.2,18.2,20.5,26.5 c8.4,9.6,17.1,19.6,23,31.1c8.9,17.4,11.2,38.2,6.1,57c-1.8,6.9-4.6,13.6-7.3,20.1c-2.2,5.3-4.5,10.9-6.3,16.5 c-2.4,7.6-2.6,15.8-2.8,23.6c-0.1,5.1-0.3,10.3-1,15.4c0,0.3-0.1,0.7-0.1,1c-0.1,1.5-0.2,3.3-2.3,7.4c3.1,4.3,5.8,8.9,8.4,13.3 l16.2,27.7c3.9,6.7,8,13.7,10.2,21.4c0.8,2.9,1.5,5.8,2.2,9c2.4,10.8,4.8,22,13.6,27L209,380.9z M137,209.5 c1.4,6.5,3.4,12.9,5.3,19.1l16.1,52c1.6-3.5,1.7-5,1.8-6.4c0-0.4,0-0.7,0.1-1.1c0.7-5.1,0.8-10.3,1-15.3c0.2-7.9,0.4-16.2,2.9-23.9 c1.8-5.6,4.1-11.2,6.3-16.5c2.7-6.4,5.5-13.1,7.3-20c5-18.6,2.8-39.2-6-56.3c-5.9-11.4-14.5-21.3-22.9-30.9 c-7.3-8.4-14.8-17-20.6-26.7c-1.8-3-3.8-6.5-7.5-6.5c0,0,0,0,0,0c-2.1,0-4.2,1.3-5.5,3.4c-1.9,3.1-2,6.8-2,10.4c0,0.6,0,1.3,0,1.9 c-0.2,10.5-3.4,20.7-6.5,30.5c-0.9,2.8-1.8,5.7-2.6,8.5c-6.9,23.6-8.4,46-4.7,66.7c4.2,23.4,15.5,44,31.7,58c2.8,2.4,5.8,4.7,8.8,7 c4.7,3.6,9.6,7.3,13.7,11.7c0.3,0.3,0.5,0.6,0.8,0.9c-0.6-2.1-1-4.3-1.3-6.5c-0.2-1.7-0.5-3.4-0.9-5.1c-0.8-3.5-2.3-6.7-4.4-9.5 c-8.9-11.5-10.8-26.2-11.5-39.1c-0.1-2.1-0.2-4.1-0.2-6.2c-0.7-3.2-1.2-6.4-1.6-9.7c-0.5-5.3-0.5-10.7-0.5-16 c0-5.6,0-11.5-0.6-17.1c-1.2-9.7-4.4-19.2-7.6-28.5c-3.2-9.3-6.5-19-7.6-28.8c-0.2-1.7,0.9-2.8,2-3.1c1.1-0.4,2.6-0.1,3.5,1.4 c7.2,12.9,11.4,28.8,12.7,48.5c0.7,10.5,0.6,21.1,0.5,31.4C136.8,194.9,136.8,202.2,137,209.5z M156.4,278.4 c0.1,0.2,0.3,0.3,0.4,0.5l-2.6-8.3C154.7,273.4,155.2,276,156.4,278.4z M137.2,214.7c0,0.4,0,0.7,0.1,1.1 c0.7,12.7,2.5,27.3,11.3,38.5c0.4,0.5,0.8,1.1,1.2,1.7l-8.4-27.1C139.9,224.2,138.4,219.5,137.2,214.7z M121.1,107.4 c-0.2,0-0.4,0-0.6,0.1c-0.7,0.2-1.5,0.9-1.4,2.1c1.1,9.7,4.4,19.3,7.5,28.6c3.2,9.3,6.4,18.9,7.6,28.7c0.7,5.7,0.7,11.6,0.6,17.2 c0,5.2,0,10.6,0.5,15.9c0.1,1.2,0.3,2.4,0.4,3.5c-0.1-5.2,0-10.5,0-15.6c0.1-10.3,0.2-20.9-0.5-31.3c-1.3-19.6-5.5-35.3-12.6-48.1 C122.4,107.6,121.7,107.4,121.1,107.4z" fill="inherit"/></g><g fill="#f7c1b5" id="change4_2"><path d="M229.9,416.7c-0.2-6.5-5.2-12.1-10.5-17.9c-4.5-4.9-9.1-10.1-10.6-15.9c-2.2-8.1,0.6-16.3,3.3-24.2 c0.9-2.7,1.9-5.5,2.6-8.3c4.1-15.4,1.4-31.8-1.2-47.6c-2.5-15.1-5-30.6-1.9-45.7c2.3-11,7.5-21,12.4-30.7c4-7.9,8.2-16,14.2-22.7 c2.9-3.3,6.3-6.3,9.6-9.2c5.6-4.9,11.4-10,14.7-16.6c0.6-1.1,1.1-2.3,1.6-3.5c1.4-3.1,2.8-6.3,5.4-8.8c1.7-1.6,3.9-2.6,6.1-2.7 c0.2,0,0.4,0,0.6,0c4.4,0,6.3,3.2,7.7,5.8c10.4,18.4,23.4,41.3,21.7,65.4c-1.4,20.1-12.8,40.2-34,59.5c-5.7,5.2-12.3,9.7-18.7,14.1 c-11.6,7.9-22.6,15.4-28.6,26.8c-0.7,1.7-1.5,3.5-2.3,5.1c-0.6,1.8-1.5,3.3-2.6,4.8c-0.9,1.5-1.9,3-2.9,4.4 c-0.2,0.7-0.3,1.4-0.5,2.1c-0.7,2.8-1.7,5.6-2.6,8.4c-2.6,7.6-5.3,15.5-3.2,23.1c1.5,5.5,5.9,10.4,10.2,15.2 c5.3,5.8,10.7,11.9,10.9,19.1l0,0.4l-1.8,0.1L229.9,416.7z M276.3,164.7c-0.2,0-0.3,0-0.5,0c-1.8,0.1-3.5,0.9-5,2.2 c-2.4,2.2-3.6,5.1-5,8.1c-0.5,1.2-1.1,2.4-1.7,3.6c-3.5,6.9-9.4,12.1-15.2,17.2c-3.2,2.9-6.6,5.8-9.5,9c-5.9,6.6-10,14.6-14,22.4 c-4.9,9.6-10.1,19.5-12.3,30.2c-3.1,14.7-0.5,30.1,1.9,45c2.1,12.6,4.2,25.5,3,38.2c3.9-10,9.9-26.1,12.8-38.6 c0.5-3.3,0.9-6.7,1.3-10c0.4-3,0.7-6,1.2-9.1c0.4-5.1,0.7-10.3,1.7-15.5c3.1-16.6,12.3-31.5,20.4-44.6c1.3-3.4,2.4-6.7,3.2-9.8 c0.6-2.2,1.2-4.5,1.8-6.7c2.7-10.8,5.6-21.9,13.5-28.7c0.5-0.4,1-0.6,1.6-0.6c0.5,0,0.9,0.1,1.3,0.4c0.9,0.6,1.4,1.6,1.1,2.7 c-3.6,15.4-12.1,29.3-20.4,42.7l-0.6,0.9c-2.4,6.4-5.3,12.7-8.1,18.8c-5,11-10.2,22.4-12.7,34.4c-0.4,1.9-0.8,3.9-1.1,6.3 c-0.3,4.1-0.6,8.3-1.2,12.4c-0.3,2-0.7,4.3-1.3,6.8c-0.1,0.7-0.2,1.4-0.4,2.2c-1.3,7.3-2.8,15.1-5.2,22.7c6.6-8.5,15.9-14.9,25-21 c6.3-4.3,12.9-8.8,18.5-13.9c20.8-19,32-38.7,33.4-58.3c1.7-23.6-11.2-46.2-21.5-64.4C281,167.1,279.7,164.7,276.3,164.7z M226.1,324.5c-1.3,3.7-2.6,7.2-3.8,10.5c0.2-0.4,0.4-0.8,0.6-1.2C224.1,330.9,225.1,327.9,226.1,324.5z M251,233.9 c-5.9,10.1-11.7,21.5-14.1,33.8c2.8-8.9,6.7-17.5,10.5-25.8C248.6,239.3,249.9,236.6,251,233.9z M275.7,178.9 c-0.2,0-0.3,0.1-0.5,0.2c-7.5,6.5-10.3,17.3-12.9,27.8c-0.6,2.2-1.2,4.6-1.8,6.8c-0.2,0.8-0.4,1.5-0.7,2.3 c7.1-11.8,13.6-23.5,16.6-36.2c0.1-0.4-0.2-0.7-0.3-0.7C276,179,275.9,178.9,275.7,178.9z" fill="inherit"/><path d="M230.3,416.7c-0.2-6.7-5.2-12.3-10.6-18.2c-4.4-4.9-9-10-10.5-15.8c-2.1-8,0.6-16.1,3.3-23.9 c0.9-2.7,1.9-5.5,2.6-8.3c4.1-15.5,1.4-31.9-1.2-47.8c-2.5-15-5-30.6-1.9-45.5c2.3-10.9,7.4-20.9,12.4-30.6 c4-7.8,8.2-15.9,14.2-22.7c2.9-3.3,6.3-6.3,9.6-9.2c5.6-5,11.4-10.1,14.8-16.8c0.6-1.1,1.1-2.4,1.6-3.5c1.3-3.1,2.7-6.2,5.3-8.6 c1.7-1.5,3.7-2.5,5.8-2.6c4.6-0.3,6.5,3,8,5.6c10.4,18.3,23.4,41.2,21.7,65.2c-1.4,20-12.8,40-33.8,59.3c-5.7,5.2-12.3,9.7-18.6,14 c-11.6,7.9-22.6,15.5-28.7,26.9c-0.7,1.7-1.4,3.4-2.3,5.1c0,0,0,0,0,0.1c-0.6,1.7-1.4,3.2-2.5,4.7c-0.9,1.5-1.9,3-2.9,4.5 c-0.2,0.7-0.3,1.4-0.5,2.1c-0.7,2.8-1.7,5.6-2.6,8.3c-2.6,7.7-5.3,15.6-3.2,23.3c1.5,5.5,6,10.5,10.3,15.4 c5.2,5.8,10.6,11.8,10.8,18.8L230.3,416.7z M276.3,164.3c-0.2,0-0.3,0-0.5,0c-1.9,0.1-3.7,1-5.2,2.3c-2.4,2.3-3.7,5.2-5.1,8.3 c-0.5,1.2-1.1,2.4-1.7,3.6c-3.5,6.8-9.4,12-15.1,17.1c-3.2,2.9-6.6,5.8-9.5,9.1c-5.9,6.6-10,14.7-14,22.5 c-5,9.6-10.1,19.6-12.3,30.3c-3.1,14.8-0.6,30.2,1.9,45.1c2.2,13.6,4.5,27.6,2.6,41.1c3.8-9.6,10.7-27.8,13.9-41.5 c0.5-3.3,0.9-6.7,1.3-10c0.4-3,0.7-6,1.2-9.1c0.4-5.1,0.7-10.3,1.7-15.5c3.1-16.1,11.8-30.5,20.4-44.5c1.2-3.3,2.3-6.6,3.3-9.9 c0.6-2.2,1.2-4.5,1.8-6.7c2.7-10.7,5.5-21.8,13.4-28.5c0.7-0.6,1.7-0.7,2.5-0.2c0.8,0.5,1.2,1.3,0.9,2.2 c-3.5,15.3-12.1,29.2-20.4,42.6c-0.2,0.3-0.4,0.6-0.6,0.9c-2.4,6.4-5.3,12.7-8.1,18.9c-5,11-10.2,22.4-12.8,34.4 c-0.4,2.1-0.8,4.2-1.1,6.3c-0.3,4.1-0.6,8.3-1.2,12.4c-0.3,2.1-0.8,4.3-1.3,6.8c-0.1,0.7-0.2,1.5-0.4,2.2c-1.4,8-3.1,16.6-6,25 c6.6-9.4,16.6-16.3,26.4-23c6.3-4.3,12.9-8.8,18.5-13.9c20.9-19.1,32.1-38.8,33.5-58.6c1.7-23.7-11.2-46.4-21.6-64.6 C281.4,166.9,279.9,164.3,276.3,164.3z M229.1,314.1c-3.4,11-7.8,22.5-10.6,29.6c0,0,0.1-0.1,0.1-0.1c0.9-1.5,1.7-3,2.4-4.6 c0.6-1.8,1.4-3.4,2.2-5C225.9,327.5,227.7,320.7,229.1,314.1z M253.8,228.6c-7.5,12.3-14.6,25.2-17.2,39.2c-0.4,2-0.7,4-0.9,6.1 c2.7-11.1,7.5-21.6,12.2-31.8C249.8,237.7,251.9,233.2,253.8,228.6z M275.7,178.5c-0.2,0-0.5,0.1-0.7,0.3 c-7.6,6.5-10.4,17.5-13.1,28c-0.6,2.2-1.2,4.6-1.8,6.8c-0.5,1.8-1.1,3.7-1.7,5.5c7.6-12.4,15.1-25.2,18.4-39.2 c0.1-0.6-0.2-1-0.5-1.2C276.2,178.6,275.9,178.5,275.7,178.5z" fill="inherit"/></g><g fill="#fa6b59" id="change5_1"><path d="M229.5,477l0.1-0.4c3.2-14.1,4-28.5,2.3-42.8c-0.2-1.7-0.4-3.5-0.7-5.3c-1.5-11-3-22.4,2.4-31.9 c3.3-5.8,8.7-9.8,13.9-13.8c2.8-2.1,5.7-4.3,8.3-6.8c3.4-3.3,6.2-7.1,8.4-11.4c1.1-2.1,2-4.4,2.7-6.6c0.2-0.5,0.3-1.1,0.4-1.7 c0-0.2,0-0.5,0.2-0.8c0.1-0.5,0.2-1.2,0.5-1.9c0.4-1.1,1.1-1.9,1.7-2.6c0.3-0.3,0.6-0.7,0.9-1.1c0.7-0.9,1.1-2.1,1.6-3.1l0.1-0.1 c0.1-0.3,0.2-0.6,0.4-0.9c1.2-2.6,2.3-5.3,3.5-7.9c2.7-6.1,5.1-11.1,7.3-15.7c5.1-10.5,10-19.4,15.1-27.3 c7.6-11.9,15-20.3,23.1-26.3c14.7-11,33-15,49-18c0.3-0.1,0.6-0.1,1-0.1c1.5,0,2.9,0.7,3.8,1.8c1.2,1.4,1.5,3.3,0.9,5 c-2.6,7.1-4.3,14.7-6,22.1c-2.1,9.4-4.3,19-8.3,27.9c-10.1,22.3-32.5,38.8-57.2,42.1c-3.5,0.5-7.1,0.7-10.5,0.9 c-6.8,0.4-13.8,0.9-20.3,3.2c-0.1,0.1-0.8,0.6-1.2,0.9c-1.2,1-2.1,1.7-2.8,2.2c-0.5,0.6-0.9,1.2-1.3,1.8l0,0.2 c-0.7,2.3-1.7,4.6-2.8,6.9c-2.3,4.4-5.2,8.4-8.8,11.9c-2.6,2.5-5.6,4.8-8.4,6.9c-5.1,3.8-10.3,7.8-13.4,13.2 c-5.1,9-3.7,20-2.2,30.7c0.2,1.8,0.5,3.6,0.7,5.4c1.7,14.5,0.9,29.1-2.3,43.4l-0.1,0.4L229.5,477z M309.1,320.2 c-2.8,4.6-6.4,10.4-11,14.8c-3.9,3.8-8.6,6.8-13.1,9.7c-2.9,1.8-5.9,3.8-8.7,5.9c-0.2,0.2-0.4,0.3-0.7,0.5c6-1.7,12.3-2.1,18.5-2.5 c3.4-0.2,7-0.4,10.4-0.9c24-3.2,45.9-19.4,55.8-41.1c3.9-8.7,6.1-18.3,8.2-27.5c1.7-7.4,3.4-15.1,6-22.3c0.4-1.1,0.2-2.3-0.6-3.2 c-0.6-0.8-1.5-1.2-2.5-1.2c-0.2,0-0.4,0-0.6,0.1c-15.8,2.9-33.9,7-48.3,17.7c-7.9,5.9-15.1,14.1-22.6,25.8c-5,7.8-9.9,16.7-15,27.1 c-2.3,4.6-4.6,9.6-7.3,15.7c-1.2,2.6-2.4,5.3-3.5,7.9c-0.1,0.3-0.2,0.5-0.3,0.8c0.6-0.7,1.3-1.5,2-2.2c2.7-2.8,5.8-5.7,9.9-8.9 c2.7-2.2,5.5-4.3,8.3-6.3l0.1-0.1c4.4-3.3,8.9-6.6,13-10.3l0.6-0.6l0.2-0.4c2.6-4.2,5.2-8.5,8.4-12.3c2.6-3,5.7-6,9.6-9.2 c10.9-13.8,21-23.9,31.7-31.7c0.5-0.4,1-0.5,1.6-0.5c0.7,0,1.4,0.3,1.9,0.8c0.8,0.8,1.3,2.2,0.4,3.5c-5,7.6-12.5,13.6-18.4,17.8 c-1.8,1.3-3.5,2.5-5.3,3.7c-3.5,2.5-7.2,5-10.6,7.7c-2.3,3-4.8,6.3-7.6,10C316.5,312.8,313,316.7,309.1,320.2z M304.5,324.1 c-3.1,2.5-6.3,4.9-9.4,7.2l-0.1,0.1c-2.7,2-5.5,4.1-8.2,6.3c-4,3.2-7.1,6-9.7,8.7c-1.3,1.4-2.5,2.8-3.6,4.2 c0.6-0.5,1.1-0.9,1.8-1.4c2.8-2.2,5.9-4.1,8.8-6c4.4-2.8,9-5.7,12.8-9.5C299.9,330.9,302.3,327.5,304.5,324.1z M320,305.1 c-0.8,0.8-1.5,1.6-2.2,2.4c-1.5,1.8-2.9,3.8-4.2,5.7c1.6-1.8,3.2-3.7,4.6-5.7C318.8,306.6,319.4,305.8,320,305.1z M359.3,266.8 c-0.2,0-0.4,0.1-0.5,0.2c-9,6.5-17.8,15-26.8,25.8c1.6-1.2,3.3-2.3,4.9-3.4c1.8-1.3,3.6-2.5,5.3-3.7c5.8-4.2,13.2-10,18-17.4 c0.4-0.6-0.1-1.1-0.1-1.2C359.9,267,359.6,266.8,359.3,266.8z" fill="inherit"/><path d="M230.9,476.9l-1-0.2c3.2-14.1,4-28.6,2.3-42.9c-0.2-1.8-0.4-3.6-0.7-5.4c-1.5-10.9-3-22.2,2.4-31.6 c3.3-5.7,8.6-9.7,13.8-13.7c2.8-2.1,5.8-4.4,8.3-6.8c3.4-3.3,6.3-7.2,8.5-11.5c1.1-2.2,2-4.4,2.7-6.7c0.2-0.6,0.3-1.2,0.4-1.8 c0-0.2,0-0.4,0.1-0.7c0.1-0.6,0.3-1.3,0.5-1.9c0.4-1,1-1.8,1.6-2.5c0.3-0.3,0.6-0.7,0.9-1.1c0.7-1,1.2-2.1,1.6-3.2 c0.1-0.3,0.3-0.7,0.4-1c1.2-2.6,2.3-5.3,3.5-7.9c2.7-6.1,5.1-11.1,7.3-15.7c5.1-10.5,10-19.4,15.1-27.2c7.6-11.9,14.9-20.2,23-26.2 c14.6-10.9,32.9-15,48.8-17.9c1.7-0.3,3.3,0.3,4.4,1.6c1.1,1.3,1.4,3,0.8,4.6c-2.6,7.1-4.3,14.8-6,22.2c-2.1,9.3-4.3,19-8.3,27.8 c-10,22.2-32.4,38.6-56.9,41.9c-3.5,0.5-7,0.7-10.5,0.9c-6.8,0.4-13.9,0.9-20.4,3.2c-0.1,0.1-0.7,0.6-1.3,1c-1.2,1-2.2,1.7-2.8,2.2 c-0.5,0.6-1,1.2-1.4,1.9c0,0.1,0,0.1-0.1,0.2c-0.7,2.3-1.6,4.6-2.8,6.8c-2.2,4.4-5.2,8.4-8.7,11.8c-2.6,2.5-5.5,4.7-8.4,6.9 c-5.1,3.8-10.3,7.8-13.5,13.4c-5.2,9.1-3.7,20.2-2.3,31c0.2,1.8,0.5,3.6,0.7,5.4C234.9,448.1,234.2,462.7,230.9,476.9z M306.3,322.2c-3.7,3.1-7.6,6-11.3,8.8c-2.7,2.1-5.6,4.2-8.3,6.3c-4,3.2-7.1,6-9.8,8.8c-1.5,1.6-3,3.3-4.2,4.9 c-0.1,0.1-0.3,0.3-0.5,0.6c-1.6,1.9-2.7,3.2-3.1,4c0,0,0,0,0.1,0c1.8-2.1,3.9-4.1,6.5-6.1c2.8-2.1,5.8-4.1,8.8-5.9 c4.5-2.8,9.1-5.8,12.9-9.5C300.7,330.6,303.6,326.4,306.3,322.2z M308.8,320c-3.2,5.2-6.5,10.5-10.9,14.8 c-3.9,3.8-8.6,6.8-13.1,9.6c-2.9,1.8-5.9,3.8-8.7,5.9c-0.8,0.6-1.5,1.2-2.2,1.8c6.6-2.2,13.5-2.7,20.3-3.1c3.4-0.2,7-0.4,10.4-0.9 c24.2-3.2,46.2-19.5,56.1-41.3c4-8.7,6.1-18.4,8.2-27.6c1.7-7.4,3.4-15.1,6-22.3c0.5-1.3,0.2-2.6-0.6-3.6c-0.9-1-2.2-1.5-3.5-1.2 c-15.8,2.9-34,7-48.4,17.7c-8,5.9-15.2,14.2-22.7,25.9c-5,7.8-9.9,16.7-15,27.1c-2.3,4.7-4.6,9.6-7.3,15.7 c-1.2,2.6-2.4,5.3-3.5,7.9c-0.1,0.3-0.3,0.7-0.4,1c-0.4,0.9-0.8,1.9-1.3,2.8c1.2-1.6,2.6-3.2,4.1-4.8c2.7-2.8,5.8-5.6,9.9-8.9 c2.7-2.2,5.6-4.3,8.3-6.4c4.4-3.3,8.9-6.6,13-10.3c0.2-0.2,0.5-0.4,0.7-0.6c0.1-0.2,0.2-0.3,0.3-0.5c2.6-4.2,5.2-8.5,8.4-12.3 c2.8-3.4,6.1-6.3,9.5-9.1c8.8-11.2,19.2-22.6,31.7-31.7c1.1-0.8,2.3-0.5,3,0.2c0.7,0.7,1.1,1.8,0.4,3c-4.9,7.6-12.4,13.5-18.3,17.7 c-1.8,1.3-3.5,2.5-5.3,3.7c-3.6,2.5-7.2,5-10.6,7.7c-2.7,3.4-5.2,6.8-7.7,10.1C316.2,312.6,312.7,316.5,308.8,320z M323.3,301.3 c-2.1,1.9-4.1,3.8-5.8,6c-2.4,2.9-4.6,6.1-6.6,9.4c2.7-2.7,5.3-5.7,7.6-8.9C320.1,305.6,321.7,303.5,323.3,301.3z M359.3,266.4 c-0.2,0-0.5,0.1-0.8,0.3c-11.2,8.1-20.7,18.2-28.9,28.3c2.5-1.8,5-3.6,7.5-5.3c1.8-1.2,3.6-2.5,5.3-3.7c5.9-4.2,13.2-10,18.1-17.5 c0.4-0.7,0.2-1.3-0.2-1.7C360,266.5,359.7,266.4,359.3,266.4z" fill="inherit"/></g><g fill="#fa6b59" id="change5_2"><path d="M323.7,456.4c-1,0-1.9-0.5-2.6-0.8c-15.6-8.4-28.2-22.6-34.7-39.1c-0.5-1.2-0.9-2.4-1.3-3.5 c-1.4-3.8-2.8-7.6-5.1-10.9c-3.6-5.1-9-8.3-14.8-11.5c-4.2-2.4-10.3-5.2-15.2-5.2c-2.3,0-4.1,0.7-5.4,2l-0.3,0.3l-1.3-1.2l0.3-0.3 c1.6-1.7,3.8-2.5,6.7-2.5c5.3,0,11.7,2.9,16.1,5.4c2.5,1.4,5.4,3.1,8.1,5c0-0.2,0-0.4,0.1-0.6c0.6-1.4,3-2.1,3.4-2.2 c5.4-1.4,11-2.1,16.7-2.1c7.5,0,14.9,1.2,21.8,3.6c7.9,2.7,13.1,6.4,16.1,11.4c5,8.3,2.9,18.5,0.4,28.3l-5.3,20.5 c-0.3,1.1-0.7,1.9-1.4,2.6C325.3,456,324.5,456.4,323.7,456.4L323.7,456.4z M279.1,398.1c0.9,0.9,1.7,1.9,2.4,2.9 c2.5,3.4,3.9,7.5,5.3,11.3l0,0.1c0.4,1.1,0.8,2.3,1.3,3.4c6.3,16.1,18.7,30,33.9,38.2c0.6,0.3,1.2,0.6,1.7,0.6 c0.4,0,0.8-0.2,1.1-0.5c0.4-0.4,0.7-1,0.9-1.7l5.3-20.5c2.4-9.4,4.5-19.3-0.2-27c-2.8-4.6-7.7-8-15.2-10.6 c-6.8-2.3-13.9-3.5-21.3-3.5c-5.5,0-11,0.7-16.3,2.1c-0.7,0.2-1.2,0.4-1.6,0.7c11.6,1.1,22,10.4,27.3,15.9l0.4,0.4 c5.9,6.2,13.9,14.7,16.5,23.4c0.3,0.8-0.2,1.7-1,2.1c-0.2,0.1-0.5,0.1-0.7,0.1c-0.6,0-1.2-0.3-1.5-0.9 c-6.1-11.1-16.8-20.8-21.1-24.5c-1.6-1.3-2.9-2.8-4.2-4.2c-2.5-2.7-4.8-5.3-8.4-6.3c-0.6-0.2-1.3-0.3-1.9-0.5 C281,398.7,280,398.5,279.1,398.1z M277.4,395.4c1.4,0.9,3.2,1.3,4.9,1.7c0.7,0.2,1.4,0.3,2,0.5c4.1,1.2,6.6,3.9,9.2,6.9 c1.3,1.4,2.5,2.8,4,4c4.3,3.6,14.8,13.2,21.1,24.2c-2.7-8-10.3-15.9-15.8-21.8l-0.4-0.4C297.6,405.5,288,396.9,277.4,395.4z" fill="inherit"/><path d="M323.7,456c-0.9,0-1.8-0.5-2.4-0.8c-15.5-8.4-28-22.5-34.5-38.9c-0.5-1.2-0.9-2.4-1.3-3.5 c-1.4-3.8-2.8-7.7-5.2-11c-3.6-5.1-9.1-8.4-14.9-11.6c-5.9-3.3-16.4-8-21-3.1l-0.7-0.7c5.1-5.4,16.1-0.5,22.3,2.9 c3.2,1.8,6.4,3.6,9.2,5.8c-0.1-0.2-0.3-0.4-0.4-0.5c-0.2-0.4-0.2-0.8-0.1-1.1c0.5-1.2,2.9-1.9,3.2-1.9c12.5-3.2,26.1-2.7,38.3,1.5 c7.8,2.7,13,6.3,15.9,11.2c4.9,8.1,2.9,18.3,0.3,28l-5.3,20.5c-0.3,1-0.7,1.8-1.3,2.4C325.1,455.8,324.3,456,323.7,456z M277.3,396.9c1.4,1.3,2.7,2.7,3.8,4.3c2.4,3.4,3.9,7.4,5.3,11.2c0.4,1.2,0.9,2.4,1.3,3.5c6.4,16.1,18.8,30.1,34,38.4 c1.2,0.7,2.3,1.1,3.3,0c0.5-0.5,0.8-1.1,1-1.9l5.3-20.5c2.5-9.5,4.5-19.5-0.2-27.3c-2.8-4.7-7.9-8.2-15.4-10.8 c-12-4.1-25.4-4.7-37.7-1.5c-1.1,0.3-2.3,0.9-2.5,1.4c0,0,0,0,0,0c11.8,0.7,22.6,10.2,28,15.8l0.4,0.4c5.9,6.2,13.9,14.6,16.4,23.2 c0.2,0.7-0.1,1.3-0.8,1.6c-0.6,0.3-1.3,0-1.7-0.6c-6.1-11.2-16.9-20.9-21.2-24.6c-1.5-1.3-2.9-2.8-4.1-4.2 c-2.5-2.8-4.9-5.4-8.5-6.4c-0.6-0.2-1.3-0.3-2-0.5C280.4,398.1,278.7,397.7,277.3,396.9z M276.2,394.9c1.5,1.6,3.8,2.1,6.1,2.7 c0.7,0.2,1.4,0.3,2,0.5c4,1.1,6.4,3.9,9,6.7c1.3,1.4,2.5,2.8,4,4.1c4.4,3.7,15.2,13.5,21.4,24.9c0.1,0.2,0.3,0.2,0.4,0.1 c0.1,0,0.2-0.1,0.2-0.4c-2.5-8.4-10.4-16.7-16.2-22.8l-0.4-0.4C297.6,404.9,287.4,395.8,276.2,394.9z" fill="inherit"/></g><g fill="#fa6b59" id="change5_3"><path d="M345.6,388.6c-5.8,0-11.2-1.1-16-3.3c-4-1.8-7.7-4.8-11.3-7.7c-4.6-3.7-9.4-7.6-14.8-8.8 c-2.2,0.6-4.4,0.9-6.6,1c-0.7,0-1.4,0.1-2.1,0.1c-3.9,0-7.8-0.6-11.6-1.1c-3.9-0.6-7.6-1.1-11.2-1.1c-3.1,0-5.9,0.4-8.4,1.3 l-0.4,0.1l-0.6-1.7l0.4-0.1c2.7-0.9,5.6-1.4,9-1.4c3.8,0,7.7,0.6,11.4,1.1c3.8,0.6,7.6,1.1,11.4,1.1c0.7,0,1.3,0,2-0.1 c2.1-0.1,4.2-0.4,6.4-1c0.2-0.1,0.6-0.3,0.9-0.5l0.1-0.1l0.1,0c2.5-1.1,5.2-2.1,8-2.8c4-1.9,7.9-4.2,12-6.6c5.9-3.5,12-7,18.6-9.3 c5.9-2,12.3-3,19.7-3c10.2,0,20.6,1.9,30.6,3.7l2.1,0.4c2.5,0.5,4.7,2,5.7,4.2c2.2,4.5-1.5,7.8-3.6,9.5 c-9.7,8.4-19.4,16.4-30.8,21.3C359.7,387,352.4,388.6,345.6,388.6z M309.1,369c3.7,1.9,7,4.6,10.3,7.2c3.5,2.8,7.1,5.7,10.9,7.5 c4.6,2.1,9.7,3.1,15.2,3.1c6.6,0,13.6-1.5,20.3-4.4c11.2-4.8,20.7-12.7,30.4-21c2.5-2.1,4.6-4.3,3.1-7.3c-0.8-1.6-2.5-2.8-4.4-3.2 l-2.1-0.4c-10-1.8-20.3-3.7-30.3-3.7c-7.1,0-13.4,0.9-19.1,2.9c-6.4,2.1-12.4,5.7-18.2,9.1l-0.1,0.1c-2.2,1.3-4.5,2.6-6.8,3.9 c2.8-0.3,5.7-0.5,8.9-0.5c2.7,0,5.6,0.1,9.1,0.4c2.1,0.2,4.3,0.4,6.4,0.7c3.3,0.4,6.6,0.8,9.8,0.8c1.2,0,2.3-0.1,3.4-0.2 c5.7-0.6,11.1-2.9,16.4-5.1c3.1-1.3,6.3-2.6,9.5-3.7c0.3-0.1,0.6-0.1,0.9-0.1c0.9,0,1.8,0.4,2.4,1.2c0.8,1,0.9,2.4,0.3,3.5 c-2,3.5-7.1,5.7-11.2,6.6c-13.4,2.9-27.1,4.3-40.7,4.3C325.4,370.5,317.2,370,309.1,369z M308.8,367.1c8.2,1.1,16.5,1.6,24.7,1.6 c0,0,0,0,0,0c13.5,0,27-1.4,40.3-4.3c3.7-0.8,8.3-2.7,10-5.7c0.3-0.6,0.2-1.1-0.1-1.5c-0.1-0.1-0.4-0.5-1-0.5c-0.1,0-0.3,0-0.4,0.1 c-3.2,1-6.3,2.3-9.3,3.6c-5.4,2.3-11,4.6-16.9,5.2c-1.1,0.1-2.3,0.2-3.5,0.2c-3.4,0-6.7-0.4-10-0.8c-2.1-0.3-4.2-0.5-6.3-0.7 c-3.4-0.3-6.3-0.4-9-0.4c-5.5,0-10.2,0.5-14.5,1.5C311.4,366.1,310.1,366.7,308.8,367.1z" fill="inherit"/><path d="M345.6,388.2c-5.7,0-11-1.1-15.8-3.3c-4-1.8-7.7-4.8-11.2-7.6c-4.7-3.8-9.5-7.7-15-8.9c-2.2,0.5-4.4,0.9-6.6,1 c-4.5,0.3-9.2-0.4-13.7-1.1c-6.9-1-13.4-2-19.7,0.2l-0.3-0.9c6.5-2.2,13.5-1.2,20.2-0.2c4.4,0.7,9,1.3,13.5,1.1 c2.2-0.1,4.4-0.5,6.5-1c0.3-0.2,0.7-0.3,1-0.5v0c0,0,0,0,0,0c2.6-1.2,5.3-2.1,8-2.8c4.1-1.9,8.1-4.2,12.1-6.6 c5.9-3.5,12-7,18.5-9.2c16-5.4,33.4-2.3,50.1,0.8l2.1,0.4c2.4,0.4,4.4,1.9,5.4,3.9c1.9,3.9-0.8,6.7-3.5,9 c-9.7,8.4-19.4,16.3-30.7,21.3C359.4,386.7,352.3,388.2,345.6,388.2z M306.4,368.2c4.6,1.7,8.7,5.1,12.7,8.3 c3.5,2.8,7.2,5.8,11,7.5c10.2,4.6,23.2,4.2,35.8-1.3c11.2-4.9,20.8-12.8,30.5-21.1c2.5-2.2,4.8-4.6,3.2-7.8c-0.9-1.8-2.6-3-4.7-3.4 l-2.1-0.4c-16.6-3-33.8-6.1-49.6-0.8c-6.4,2.2-12.4,5.7-18.3,9.1c-2.9,1.7-5.9,3.4-8.9,5c6.8-1.1,13.8-0.9,20.2-0.5 c2.1,0.2,4.3,0.4,6.4,0.7c4.3,0.5,8.8,1.1,13.2,0.7c5.7-0.6,11.2-2.9,16.5-5.1c3.1-1.3,6.2-2.6,9.5-3.6c1.1-0.3,2.2,0,2.9,0.9 c0.7,0.9,0.8,2.1,0.2,3c-2,3.4-7,5.5-10.9,6.4C351.8,370.6,329,371.4,306.4,368.2z M307.1,367.3c22.3,3.1,44.7,2.3,66.7-2.5 c3.8-0.8,8.5-2.8,10.3-5.9c0.4-0.7,0.2-1.5-0.2-1.9c-0.4-0.4-1-0.8-1.8-0.6c-3.2,1-6.3,2.3-9.4,3.6c-5.4,2.3-10.9,4.6-16.8,5.2 c-4.5,0.5-9.1-0.1-13.5-0.7c-2.1-0.3-4.2-0.5-6.4-0.7c-7.4-0.5-15.7-0.7-23.6,1.2C310.8,365.9,309,366.7,307.1,367.3z" fill="inherit"/></g><g fill="#f7c42f" id="change3_2"><path d="M196.3,361.2c-4.2-12.6-19.6-20.4-32.4-25.7c-4.3-1.8-8.8-3.3-13.1-4.9l0-0.4l-0.1,0.4c-1.5-0.5-3-1.1-4.6-1.6 c-8.1,0.7-15.7,5.5-23,10.1c-2.6,1.7-5.3,3.4-8,4.8c-12.2,6.7-25.1,10.3-37.4,10.3c-1.6,0-3.2-0.1-4.7-0.2 c-15.5-1.2-29.5-8.1-38.4-19.2c-8.2-10.2-11.6-23.1-14.9-35.6c-2.5-9.5-5.1-19.3-9.8-27.9c-0.9-1.7-1.9-3.3-2.9-4.9 c-1.9-3.1-3.9-6.4-5.2-9.9c-1-2.6-1.6-5.4-1.7-7.9c-0.1-3,1.4-5.6,3.9-7.1c1.2-0.7,2.6-1.1,4-1.1c1.4,0,2.9,0.4,4.1,1.2 c3.1,1.9,5.8,4.7,8.5,7.3c1.5,1.5,3.1,3.1,4.7,4.4c7.2,6.2,16.7,9,25.8,11.8c3.4,1,6.9,2.1,10.3,3.3c10.3,3.8,19.8,9.2,28.3,16.3 c5.1,4.3,9.8,9.1,14.4,13.8c6.8,7,13.9,14.3,22.3,19.5c4.4,2.8,9.5,5.2,16.5,7.8c1.2,0.3,2.5,0.7,3.8,1.4c1.6,0.6,3.2,1.1,4.8,1.7 c4.4,1.5,8.9,3.1,13.3,4.9c13.2,5.5,29,13.5,33.5,26.8l0.1,0.4l-1.7,0.6L196.3,361.2z M7.9,242.1c-1.1,0-2.1,0.3-3.1,0.8 c-2,1.2-3.1,3.2-3,5.5c0.1,2.4,0.6,4.9,1.6,7.3c1.3,3.3,3.2,6.5,5.1,9.6c1,1.6,2,3.3,2.9,5c4.8,8.8,7.4,18.7,9.9,28.3 c3.3,12.3,6.6,25.1,14.6,35c8.5,10.5,22.3,17.4,37.1,18.5c1.5,0.1,3.1,0.2,4.6,0.2c12,0,24.6-3.5,36.5-10c2.6-1.4,5.2-3.1,7.9-4.8 c4-2.5,8.2-5.2,12.5-7.1c-1.5,0.3-3.1,0.5-4.6,0.8c-6.6,1.2-13.5,2.4-20.4,2.4l-0.4,0c-4.6,0-8.7-0.2-12.6-1.9 c-4.4-1.9-7.6-5.5-10.8-9l-0.6-0.6c-0.4-0.4-0.7-0.8-1.1-1.2c-11.1-4.9-21.7-13-32.6-25c-2.4-2.7-4.9-5.6-7.7-9 c-8.2-5.4-19.4-12.7-23.1-22.6c-0.6-1.7,0.2-3.1,1.3-3.7c0.5-0.3,1-0.4,1.6-0.4c0.9,0,1.7,0.4,2.3,1.1c3.5,4.3,6.9,8.7,10.3,13 l0.1,0.1c2.8,3.7,5.7,7.4,8.7,11.1l0.3,0.2c14.6,9.5,28,20.9,39.8,33.7c2.8,1.2,5.7,2.2,8.5,3c2.3,0.6,4.7,0.9,7.6,0.9 c3.8,0,7.7-0.5,11.5-1c3.8-0.5,7.7-1,11.5-1c1.4,0,2.8,0.1,4,0.2c-1.1-0.6-2.1-1.2-3.1-1.8c-8.6-5.3-15.7-12.7-22.6-19.8 c-4.5-4.7-9.2-9.5-14.2-13.7c-8.3-6.9-17.6-12.3-27.7-16c-3.3-1.2-6.8-2.3-10.2-3.3c-9.4-2.8-19-5.7-26.5-12.2 c-1.6-1.4-3.2-3-4.7-4.5c-2.6-2.6-5.3-5.3-8.2-7.1C10.1,242.4,9,242.1,7.9,242.1z M88,322.4c2.8,3,5.7,6,9.3,7.6 c3.5,1.5,7.5,1.7,11.9,1.7l0.3,0c6.8,0,13.9-1.2,20.1-2.4c4-0.7,8.2-1.4,12.3-1.9l-0.8-0.2c-1.8-0.5-3.7-1-5.7-2 c-3.1-1.6-6.7-2.3-11.1-2.3c-3.6,0-7.4,0.5-11.3,1c-3.9,0.5-7.9,1-11.8,1c-3,0-5.6-0.3-8-1C91.6,323.6,89.8,323,88,322.4z M49.2,290.3c1.3,1.5,2.5,2.9,3.8,4.3c9.3,10.3,18.4,17.7,27.8,22.6C71.2,307.2,60.6,298.2,49.2,290.3z M23.7,261.8 c-0.2,0-0.5,0.1-0.7,0.2c-0.2,0.1-0.9,0.6-0.5,1.5c2.8,7.4,10,13.3,17.7,18.6c-1.8-2.3-3.6-4.6-5.3-6.9c-3.3-4.3-6.8-8.7-10.3-13 C24.4,262,24.1,261.8,23.7,261.8z" fill="inherit"/><path d="M196.7,361c-4.3-12.8-19.7-20.6-32.7-25.9c-4.3-1.8-8.8-3.4-13.2-4.9c-1.6-0.5-3.2-1.1-4.7-1.7 c-8.2,0.7-15.9,5.5-23.3,10.2c-2.6,1.7-5.3,3.4-8,4.8c-13.7,7.6-28.2,11-41.9,10c-15.4-1.1-29.3-8.1-38.1-19 c-8.2-10.2-11.6-23-14.9-35.5c-2.5-9.5-5.1-19.3-9.8-28c-0.9-1.7-1.9-3.3-2.9-4.9c-1.9-3.1-3.8-6.3-5.2-9.8c-1-2.6-1.6-5.3-1.7-7.8 c-0.1-2.8,1.3-5.3,3.7-6.8c2.4-1.4,5.3-1.4,7.7,0.1c3,1.9,5.8,4.6,8.5,7.3c1.5,1.5,3.1,3.1,4.7,4.4c7.3,6.2,16.8,9.1,25.9,11.9 c3.4,1,6.9,2.1,10.3,3.3C71.5,272.5,81,278,89.4,285c5.1,4.2,9.8,9.1,14.3,13.8c6.8,7.1,13.9,14.3,22.3,19.6 c5.2,3.2,10.8,5.7,16.5,7.8c1.3,0.4,2.6,0.8,3.7,1.4c1.6,0.6,3.2,1.1,4.8,1.7c4.4,1.5,8.9,3.1,13.3,4.9 c13.2,5.5,28.8,13.4,33.2,26.5L196.7,361z M7.9,241.7c-1.1,0-2.2,0.3-3.3,0.9c-2.1,1.2-3.3,3.4-3.2,5.9c0.1,2.4,0.6,5,1.6,7.5 c1.3,3.4,3.2,6.6,5.1,9.6c1,1.6,2,3.3,2.9,5c4.8,8.7,7.4,18.6,9.9,28.2c3.3,12.4,6.7,25.1,14.7,35.1c8.5,10.6,22.5,17.6,37.4,18.7 c13.5,1,27.8-2.4,41.3-9.9c2.6-1.4,5.2-3.1,7.9-4.8c5-3.2,10.1-6.4,15.5-8.4c-2.6,0.4-5.3,0.9-7.9,1.3c-6.8,1.2-13.8,2.4-20.7,2.4 c-4.6,0-8.7-0.2-12.4-1.8c-4.3-1.9-7.5-5.4-10.6-8.9l-0.6-0.6c-0.4-0.4-0.8-0.8-1.1-1.3c-11-4.8-21.8-13-32.5-24.9 c-2.7-2.9-5.2-6-7.7-9.1c-8.7-5.7-19.4-12.8-23-22.5c-0.5-1.5,0.2-2.7,1.2-3.2c1-0.6,2.4-0.6,3.4,0.6c3.5,4.3,7,8.7,10.3,13 c2.9,3.7,5.8,7.5,8.9,11.3c0.1,0.1,0.3,0.2,0.4,0.3c14.6,9.5,28,20.9,39.8,33.7c2.9,1.2,5.8,2.2,8.7,3c6.1,1.6,12.8,0.7,19.2-0.1 c6-0.8,12.1-1.6,17.8-0.4c-1.8-0.9-3.5-1.9-5.2-2.9c-8.5-5.3-15.6-12.7-22.5-19.8c-4.5-4.7-9.2-9.5-14.3-13.7 c-8.3-6.9-17.7-12.3-27.9-16c-3.3-1.2-6.9-2.3-10.3-3.3c-9.3-2.8-18.9-5.7-26.3-12.1c-1.6-1.4-3.2-3-4.7-4.5 c-2.6-2.6-5.4-5.3-8.3-7.1C10.3,242.1,9.1,241.7,7.9,241.7z M86.6,321.4l0.3,0.3c3,3.4,6.2,6.9,10.3,8.7c3.6,1.6,7.6,1.7,12,1.8 c6.8,0,13.8-1.2,20.5-2.4c4.6-0.8,9.3-1.6,14-2.1c-0.5-0.2-1-0.4-1.5-0.6c-0.3-0.1-0.7-0.2-1-0.3c-1.8-0.5-3.7-1-5.6-2 c-6.8-3.5-14.5-2.4-22.6-1.4c-6.6,0.9-13.4,1.8-19.6,0.1C91.2,323.1,88.9,322.3,86.6,321.4z M47,288.4c1.8,2.2,3.7,4.4,5.6,6.5 c9.9,11,19.8,18.8,30,23.7C72,307.2,60,297.1,47,288.4z M23.7,261.4c-0.3,0-0.6,0.1-0.9,0.2c-0.6,0.3-1.1,1-0.7,2 c3.2,8.4,12,14.9,20,20.3c-2.4-3-4.7-5.9-6.9-8.9c-3.3-4.3-6.8-8.7-10.3-13C24.6,261.6,24.2,261.4,23.7,261.4z" fill="inherit"/></g><g fill="#f7c42f" id="change3_3"><path d="M131.7,456.4c-0.5,0-1-0.1-1.5-0.4c-1-0.6-1.6-1.6-1.6-2.7l0.4-41.4c0.1-13.8,0.9-26.9,8.9-36.5 c1.7-2,3.6-3.8,5.5-5.5c2.3-2.1,4.7-4.2,6.5-6.8c1.1-1.6,2.1-3.1,3-4.6c0.4-0.7,0.8-1.5,1.2-2.2l0.4-0.7c1.4-2.6,2.4-5,3.3-7.5 c2.8-8.3,12.9-8.8,17.8-9l0.4,0l0.1,1.8l-0.4,0c-6.8,0.3-14,1.5-16.2,7.8c-0.7,2-1.5,4-2.5,6.1c0.8,0.6,1.3,1.9,1.9,3.4l6,15.9 c3.3,8.9,7.1,19,7.1,29.3c0,8-2.2,15.6-4.7,23.4c-2.5,8-5.9,17-13.5,21.2c-2.6,1.4-5.5,2.2-8.2,2.9c-1.1,0.3-2.4,0.6-3.6,1 c-3,0.9-5.9,2.3-8.6,4C132.8,456.2,132.2,456.4,131.7,456.4z M150.7,365c-1.8,2.3-3.9,4.3-6,6.2c-1.9,1.7-3.8,3.4-5.4,5.4 c-7.6,9.1-8.3,21.9-8.5,35.4l-0.4,41.4c0,0.5,0.2,0.9,0.6,1.1c0.2,0.1,0.4,0.2,0.6,0.2c0.2,0,0.5-0.1,0.7-0.2 c2.8-1.8,5.9-3.2,9-4.1c1.2-0.4,2.5-0.7,3.7-1c2.7-0.7,5.4-1.4,7.8-2.8c7.1-3.9,10.3-12.5,12.7-20.2c2.4-7.7,4.6-15.2,4.6-22.9 c0-10-3.7-19.9-7-28.7l-6-15.9c-0.4-1.1-0.7-1.9-1-2.3c0,0.8,0,1.6,0.1,2.5c0.1,0.7,0.1,1.4,0.1,2.2c0,1.7-0.1,3.4-0.3,5.4 c-0.3,2.6-0.7,5.3-1.1,7.8l0,0.3c-0.1,0.8-0.2,1.5-0.3,2.3c-1.6,10.7-3.7,21.6-6.6,33.4c-0.4,1.7-0.9,3.5-1.4,5.2 c-1.3,5-2.7,10.2-3.1,15.3c0,0.5-0.1,1.1-0.1,1.6c-0.2,3.6-0.5,7.6-3.5,10.3c-0.2,0.2-0.5,0.4-0.9,0.5c-0.1,0-0.2,0-0.4,0 c-0.4,0-0.7-0.1-1-0.4c-0.8-0.7-0.9-2-0.8-2.6c0.2-8.8,3.1-16.6,6-24.9l0.5-1.3c2-5.6,3.5-10.2,4.6-14.5c1.4-5.5,2.3-10.5,2.7-15.4 c0.3-3.2,0.3-6.3,0.1-9.5c0-0.7-0.1-1.5-0.1-2.2C150.6,370,150.4,367.5,150.7,365z M144.7,416c-2.9,8.1-5.7,15.8-5.9,24.3 c0,0.4,0.1,0.8,0.1,1c2.4-2.1,2.6-5.6,2.8-9c0-0.6,0.1-1.1,0.1-1.7c0.4-5.3,1.8-10.4,3.1-15.4L144.7,416z M154.5,359.3 c-0.8,1.4-1.7,3.4-2,5.5c-0.3,2.5-0.1,4.9,0.1,7.5c0.1,0.8,0.1,1.5,0.2,2.3c0.1,0.9,0.1,1.8,0.1,2.7c0-0.2,0.1-0.4,0.1-0.7 c0.1-0.8,0.3-1.7,0.4-2.5c0.4-2.6,0.8-5.2,1.1-7.8c0.2-1.9,0.3-3.6,0.3-5.2c0-0.6,0-1.3-0.1-1.9 C154.5,359.3,154.5,359.3,154.5,359.3z" fill="inherit"/><path d="M131.7,456c-0.4,0-0.9-0.1-1.3-0.3c-0.9-0.5-1.4-1.4-1.4-2.4l0.4-41.4c0.1-13.7,0.9-26.8,8.8-36.3 c1.7-2,3.6-3.8,5.5-5.5c2.3-2.1,4.7-4.3,6.5-6.8c1.1-1.6,2.1-3.1,3.1-4.6c0.4-0.7,0.8-1.5,1.2-2.2l0.4-0.7c0,0,0,0,0-0.1 c1.3-2.5,2.4-5,3.3-7.5c2.7-8,12.6-8.5,17.4-8.7l0,1c-6.9,0.3-14.3,1.6-16.5,8.1c-0.7,2.1-1.6,4.2-2.7,6.4c0.9,0.3,1.4,1.8,2,3.4 l6,15.9c3.3,8.9,7.1,19,7.1,29.2c0,7.9-2.2,15.5-4.7,23.3c-2.5,8-5.8,16.8-13.3,21c-2.5,1.4-5.4,2.2-8.2,2.9 c-1.2,0.3-2.4,0.6-3.6,1c-3,1-6,2.3-8.7,4C132.6,455.9,132.1,456,131.7,456z M151.4,363.4c-0.1,0.2-0.2,0.3-0.3,0.5 c-1.9,2.6-4.3,4.9-6.6,7c-1.9,1.7-3.8,3.5-5.4,5.4c-7.7,9.2-8.4,22.1-8.6,35.6l-0.4,41.4c0,0.6,0.3,1.2,0.9,1.5 c0.5,0.3,1.2,0.3,1.7,0c2.8-1.7,5.8-3.1,8.9-4.1c1.2-0.4,2.5-0.7,3.7-1c2.7-0.7,5.5-1.4,7.9-2.8c7.2-4,10.4-12.6,12.9-20.4 c2.4-7.7,4.6-15.2,4.6-23c0-10.1-3.7-20-7-28.8l-6-15.9c-0.3-0.9-1-2.8-1.4-2.8c0,0-0.1,0-0.3,0.3c-0.1,0.9,0,1.9,0.1,2.8 c0.1,0.7,0.1,1.4,0.1,2.1c0,1.7-0.1,3.4-0.3,5.4c-0.3,2.6-0.7,5.3-1.1,7.8c-0.1,0.9-0.3,1.7-0.4,2.6c-1.6,10.7-3.7,21.6-6.6,33.3 c-0.4,1.8-0.9,3.5-1.4,5.3c-1.3,5-2.7,10.1-3.1,15.3c0,0.5-0.1,1.1-0.1,1.6c-0.2,3.5-0.5,7.5-3.4,10c-0.2,0.2-0.4,0.3-0.7,0.4 c-0.4,0.1-0.7,0-1-0.2c-0.7-0.6-0.7-1.9-0.7-2.3c0.2-8.8,3-16.5,6-24.8l0.5-1.3c2-5.6,3.5-10.3,4.6-14.6c1.4-5.5,2.3-10.5,2.7-15.5 c0.3-3.2,0.3-6.4,0.1-9.5c0-0.7-0.1-1.5-0.2-2.2c-0.2-2.5-0.4-5.2-0.1-7.8C151.2,364.2,151.3,363.8,151.4,363.4z M147.7,406.1 c-0.8,2.6-1.8,5.4-2.9,8.5l-0.5,1.3c-3,8.1-5.7,15.8-6,24.4c0,0.7,0.1,1.3,0.3,1.5c0,0,0.1,0,0.1,0c0.1,0,0.2-0.1,0.2-0.2 c2.6-2.2,2.8-5.8,3-9.3c0-0.6,0.1-1.1,0.1-1.7c0.4-5.3,1.8-10.5,3.2-15.5c0.5-1.8,0.9-3.5,1.4-5.3 C147.1,408.6,147.4,407.4,147.7,406.1z M154.2,359.1c-1,1.8-1.8,3.6-2,5.6c-0.3,2.5-0.1,5,0.1,7.6c0.1,0.7,0.1,1.5,0.2,2.2 c0.2,2.9,0.1,5.8,0,8.7c0.4-2.2,0.7-4.4,1-6.6c0.1-0.9,0.3-1.7,0.4-2.6c0.4-2.5,0.8-5.2,1-7.8c0.2-1.9,0.3-3.6,0.3-5.3 c0-0.7-0.1-1.4-0.1-2.1c0-0.4-0.1-0.8-0.1-1.1C154.6,358.3,154.4,358.7,154.2,359.1z" fill="inherit"/></g><g fill="#91aeda" id="change2_2"><path d="M267.6,141.5l0.2-0.3c5.5-7.3,12.5-13.3,22.7-19.5c0.6-0.4,1.2-0.7,1.8-1.1c1.7-1,3.4-2,5-3.1 c1.3-2.6,3.2-4.9,5.9-7.1c1.8-3.8,2.5-8.1,3.2-12.6c0.7-4.1,1.3-8.3,2.9-12.2c5.4-13.5,20.2-20.2,33.6-25.4 c10.8-4.2,20.6-7.7,30.8-7.7c0.4,0,0.8,0,1.1,0c1.1,0,2.1,0.6,2.8,1.5c0.7,0.9,0.9,2.1,0.5,3.2l-4.3,14c-2.1,7-4.3,14.1-8,20.6 c-7.8,13.7-22.8,23.4-39.3,25.3c-5.5,0.6-13.7,1.3-18,1.7l-0.8,0.1c-5.7,0.5-8.3,0.7-9.5,0.7l-0.2,0l-0.1,0l-0.4,0.1l0-0.1 c-1.4,0.9-2.8,1.8-4.2,2.6c-0.7,0.4-1.2,0.7-1.8,1.1c-10,6.1-16.9,11.9-22.2,19l-0.2,0.3L267.6,141.5z M352.2,68.8 c-0.7,0.9-1.3,1.8-2,2.7c-15,21.4-35.1,36.8-49.7,46.2c5.6-0.4,18.6-1.4,25.9-2.3c15.9-1.9,30.4-11.2,37.9-24.4 c3.6-6.3,5.7-13.4,7.8-20.2l4.3-14c0.2-0.6,0.1-1.2-0.3-1.6c-0.3-0.5-0.8-0.7-1.4-0.7c-0.4,0-0.8,0-1.1,0c-1.4,0-2.8,0.1-4.2,0.2 c0.5,0.3,1,0.7,1.2,1.3c0.5,1.2,0.2,2.5-0.7,3.3c-3.1,2.7-7.1,4.5-10.9,6.2C356.8,66.4,354.4,67.5,352.2,68.8z M304.8,111.6 c-0.3,0.6-0.7,1.3-1,1.9c4-2.7,7.9-5.6,11.7-8.5c-0.7,0.4-1.5,0.9-2.2,1.3C310.1,108,307.2,109.6,304.8,111.6z M364.1,55.4 c-6.6,1.3-13.3,3.8-20.4,6.5c-13.1,5.1-27.4,11.6-32.6,24.4c-1.5,3.7-2.1,7.8-2.8,11.8c-0.6,3.5-1.1,7.1-2.2,10.4 c2-1.4,4.2-2.6,6.2-3.8c3.3-1.9,6.7-3.8,9.5-6.2c4.6-3.9,8.4-8.9,12.1-13.7c4.9-6.4,9.9-13,17-17.2l0.2-0.1 C354.4,62.9,358.8,57.7,364.1,55.4z M347.8,71.9c-4.8,3.9-8.7,9-12.5,14c-1.3,1.7-2.6,3.4-4,5.1C337.5,84.8,343,78.4,347.8,71.9z M368.2,56c-0.1,0-0.1,0-0.2,0c-4.2,0.6-8.4,3.6-13.1,9.3c1.1-0.6,2.3-1.1,3.4-1.6c3.7-1.7,7.5-3.4,10.5-5.9c0.5-0.5,0.3-1,0.3-1.2 C369,56.5,368.8,56,368.2,56z" fill="inherit"/><path d="M269,142.1l-0.8-0.6c5.5-7.2,12.5-13.2,22.6-19.4c0.6-0.4,1.2-0.7,1.8-1.1c1.7-1,3.5-2,5.1-3.2 c1.4-2.9,3.5-5.1,6-7.1c1.8-3.8,2.5-8.2,3.3-12.8c0.7-4.1,1.3-8.3,2.9-12.1c5.3-13.3,20-20,33.4-25.2c11.2-4.3,21.3-7.9,31.7-7.6 c1,0,1.9,0.5,2.5,1.3c0.6,0.8,0.8,1.9,0.5,2.9l-4.3,14c-2.1,6.9-4.3,14.1-7.9,20.5c-7.7,13.6-22.6,23.2-39,25.1 c-5.5,0.6-13.7,1.3-18,1.7c-6.7,0.5-9.4,0.8-10.5,0.7l-0.2,0l0,0c-0.1,0-0.2,0-0.3,0c-1.4,1-2.9,1.9-4.4,2.8 c-0.6,0.4-1.2,0.7-1.8,1.1C281.3,129,274.4,134.9,269,142.1z M351.9,68.5c-0.7,0.9-1.3,1.8-2,2.8c-15.4,21.8-36,37.5-50.9,46.9 c4.4-0.3,19.3-1.4,27.5-2.4c16-1.9,30.6-11.3,38.2-24.6c3.6-6.3,5.8-13.4,7.9-20.3l4.3-14c0.2-0.7,0.1-1.4-0.3-2 c-0.4-0.6-1-0.9-1.7-0.9c-10.3-0.3-20.3,3.3-31.3,7.6c-13.2,5.1-27.6,11.7-32.8,24.6c-1.5,3.7-2.1,7.9-2.8,11.9 c-0.6,3.9-1.3,7.9-2.7,11.5c2.3-1.6,4.8-3.1,7.3-4.5c3.3-1.9,6.7-3.9,9.6-6.3c4.6-3.9,8.5-8.9,12.2-13.8 c4.9-6.4,9.9-12.9,16.8-17.1c0.1,0,0.1-0.1,0.2-0.1c4.8-6.5,10.2-12.1,16.5-13c1.1-0.2,2.1,0.4,2.6,1.4c0.5,1,0.2,2.1-0.6,2.8 c-3.1,2.7-7,4.4-10.8,6.1C356.6,66.1,354.2,67.2,351.9,68.5z M302.1,113.4c-0.8,0.8-1.5,1.6-2.1,2.5c0.3-0.3,0.5-0.5,0.8-0.8 C301.2,114.5,301.7,114,302.1,113.4z M304.4,111.3c-0.6,1.3-1.4,2.5-2.3,3.7c6-4,12.7-8.8,19.4-14.5c-2.6,2.1-5.7,3.8-8.6,5.5 C309.9,107.6,307,109.3,304.4,111.3z M349.6,70c-5.8,4.1-10.3,10-14.6,15.6c-3.2,4.2-6.5,8.5-10.3,12.1 c8.6-7.6,17.1-16.6,24.4-27.1C349.3,70.4,349.5,70.2,349.6,70z M368.2,55.6c-0.1,0-0.2,0-0.3,0c-5.4,0.8-10.2,5.3-14.5,10.8 c1.7-0.9,3.4-1.6,5.1-2.4c3.7-1.7,7.6-3.4,10.6-6c0.6-0.5,0.6-1.2,0.4-1.6C369.3,56.1,368.8,55.6,368.2,55.6z" fill="inherit"/></g><g fill="#f7c1b5" id="change4_1"><path d="M273.9,318.4c-0.6-0.6-1.4-0.9-2.3-0.9c-0.5,0-1,0.1-1.5,0.3c-9.7,4.7-19.6,10.2-26.6,18.7 c-1,1.2-2,2.5-2.9,3.8c-2.1,2.9-4.3,5.8-7.1,7.9c-1.6,1.2-3.5,2.2-5.3,3.2c-0.6,0.3-1.3,0.7-1.9,1c0,0,0,0,0,0c0,0,0,0,0,0 c-0.2,0.1-0.3,0.2-0.5,0.3c-0.1,0.1-0.3,0.1-0.4,0.2l0,0c-1.6,0.9-2.9,1.8-3.9,2.8c-3.6,3.3-9.4,9.8-11.5,12.3c0,0-0.5,0.6-0.6,0.7 l0,0l-0.2,0.3l-0.1,0.1c-0.1,0.3-0.1,0.5-0.2,0.8l0.4,0.4c0.1,0.1,0.3,0.3,0.6,0.3c0.3,0,0.5-0.2,0.7-0.4c0.2-0.2,0.4-0.5,0.8-0.9 c2.2-2.5,7.9-9,11.4-12.2c1-0.9,2.2-1.7,3.8-2.6c3.2,1.8,13.3,6.3,20.1,6.3c0.8,0,1.6-0.1,2.3-0.2c5.5-1,10.5-5.2,15.4-12.9 c2.3-3.6,4.2-7.6,5.7-12l4.8-13.6C275.3,320.7,274.9,319.3,273.9,318.4z M273.1,321.5l-4.8,13.6c-1.5,4.2-3.4,8.1-5.6,11.6 c-4.6,7.2-9.2,11.2-14.2,12.1c-0.6,0.1-1.3,0.2-2,0.2c0,0,0,0,0,0c-6.4,0-15.6-4.2-18.3-5.5c0.2-0.1,0.5-0.3,0.7-0.4 c1.9-1,3.8-2,5.6-3.3c3-2.3,5.3-5.3,7.4-8.3c0.9-1.2,1.9-2.5,2.8-3.7c6.8-8.3,16.5-13.7,26-18.3c0.2-0.1,0.5-0.2,0.7-0.2 c0.4,0,0.8,0.2,1.1,0.4C273.1,320.1,273.4,320.7,273.1,321.5z" fill="inherit"/><path d="M209.7,370.3c-0.1,0-0.2-0.1-0.3-0.2l-0.4-0.3l0.3-0.4l0.3,0.2l-0.3-0.3c0.1-0.1,0.4-0.4,0.8-0.9 c2.2-2.5,7.9-9.1,11.5-12.3c1.2-1.1,2.6-2,4-2.8l0,0l0.2-0.3c0.2-0.2,0.3-0.2,0.5-0.1c0.7-0.4,1.4-0.7,2-1.1c1.8-1,3.7-1.9,5.4-3.2 c2.9-2.1,5-5.1,7.2-8c0.9-1.3,1.9-2.6,2.9-3.8c7-8.5,16.8-14,26.5-18.6c1.1-0.5,2.4-0.4,3.3,0.5c0.9,0.8,1.2,2.1,0.8,3.2l-4.8,13.6 c-1.5,4.3-3.4,8.3-5.7,11.9c-4.8,7.6-9.7,11.8-15.1,12.8c-7,1.3-19.5-4.5-22.4-6.2c-1.4,0.8-2.8,1.7-4.1,2.8 c-3.5,3.2-9.3,9.8-11.4,12.2c-0.4,0.4-0.6,0.7-0.8,0.9l0,0l0,0C209.9,370.2,209.8,370.3,209.7,370.3z M227.5,353.5 c3.4,1.7,14.8,6.9,21.2,5.7c5.1-0.9,9.8-5,14.4-12.3c2.2-3.5,4.1-7.4,5.6-11.7l4.8-13.6c0.3-0.9-0.1-1.7-0.5-2.1 c-0.5-0.4-1.3-0.7-2.2-0.3c-9.5,4.6-19.3,10-26.1,18.4c-1,1.2-1.9,2.5-2.9,3.8c-2.2,2.9-4.4,6-7.4,8.2c-1.7,1.3-3.7,2.3-5.5,3.3 C228.4,353,227.9,353.2,227.5,353.5z" fill="inherit"/></g><g fill="#f7c42f" id="change3_4"><path d="M181.2,321.4c-4.5-3.4-10.1-6.9-15.6-10.2c-5.5-3.4-11.2-6.9-15.7-10.3c-1.9-1.4-3.8-2.9-5.7-4.4 c-7.1-1.7-44.1-14.1-60.4-25.5c-10.9-7.6-18.8-18.6-26.5-29.2l-25.8-35.6c-2.2-3.1-2.1-7,0.4-10c1.6-1.9,3.7-2.9,6.1-2.9 c1.2,0,2.4,0.3,3.6,0.8c28.6,13.8,53.3,34.8,71.4,60.5c2.3,3.3,4.5,6.7,6.7,10c5.7,8.7,11.6,17.7,19.2,24.9 c1.7,1.7,3.7,3.4,6.1,5.3c0.4,0.1,0.7,0.3,0.9,0.7c1.7,1.4,3.5,2.7,5.1,3.9c4.5,3.4,10.1,6.9,15.6,10.2c5.5,3.4,11.2,6.9,15.7,10.3 l0.3,0.2l-1.1,1.4L181.2,321.4z M38,195c-1.8,0-3.5,0.9-4.7,2.3c-1.5,1.7-2.4,4.8-0.3,7.8l25.8,35.6c7.6,10.5,15.5,21.4,26.1,28.8 c14,9.8,41.7,19.8,55.9,24.2c-1.1-1-2.1-1.9-3.1-2.8c-7.7-7.4-13.7-16.5-19.5-25.2c-2.2-3.3-4.4-6.7-6.7-9.9 c-18-25.5-42.4-46.2-70.7-60C39.9,195.2,39,195,38,195z" fill="inherit"/><path d="M181.5,321.1c-4.5-3.4-10.1-6.9-15.6-10.3c-5.5-3.4-11.2-6.9-15.7-10.3c-1.9-1.5-3.9-2.9-5.8-4.5 c-6.3-1.5-43.6-13.8-60.3-25.5C73.2,263,65.3,252,57.6,241.4l-25.8-35.6c-2.1-3-2-6.7,0.4-9.5c2.3-2.8,5.9-3.5,9.2-2 c28.5,13.8,53.1,34.7,71.2,60.4c2.3,3.3,4.5,6.7,6.7,9.9c5.7,8.7,11.6,17.7,19.3,25c2,1.9,4.1,3.6,6.2,5.4c0.4,0.2,0.7,0.2,0.7,0.6 c1.7,1.4,3.5,2.7,5.2,4c4.5,3.4,10.2,6.9,15.6,10.3c5.5,3.4,11.2,6.9,15.7,10.3L181.5,321.1z M38,194.6c-2.2,0-4,1.1-5,2.4 c-1.6,1.8-2.6,5.1-0.3,8.3l0.6,0.9l25.1,34.7c7.6,10.5,15.5,21.4,26.2,28.9c16.2,11.3,48.6,22,57.9,24.8c-1.6-1.3-3.1-2.6-4.6-4 c-7.7-7.4-13.7-16.4-19.4-25.2c-2.2-3.3-4.4-6.7-6.7-9.9c-18-25.6-42.5-46.3-70.9-60.1C40,194.8,39,194.6,38,194.6z" fill="inherit"/></g></svg>